<?xml version="1.0" encoding="utf-8"?>
<!-- Generator: Adobe Illustrator 16.0.0, SVG Export Plug-In . SVG Version: 6.00 Build 0)  -->
<!DOCTYPE svg PUBLIC "-//W3C//DTD SVG 1.1//EN" "http://www.w3.org/Graphics/SVG/1.1/DTD/svg11.dtd">
<svg version="1.1" id="Layer_1" xmlns="http://www.w3.org/2000/svg" xmlns:xlink="http://www.w3.org/1999/xlink" x="0px" y="0px"
	 width="100px" height="100px" viewBox="0 0 100 100" enable-background="new 0 0 100 100" xml:space="preserve">
<g>
	<path fill="#238ABA" d="M98,50c0,26.517-21.484,48-48,48S2,76.517,2,50C2,23.484,23.484,2,50,2S98,23.484,98,50z"/>
	<path fill="#145269" d="M23.098,70.653L65.76,95.342c0,0,14.523-4.547,24-18.408c13.552-19.788,6.16-40.812,6.16-40.812
		L72.318,22.446L60.51,40.167L41.831,52.168l-6.86,17.146L23.098,70.653z"/>
	<path fill="#FFFFFF" d="M48.035,21.96c0,0-3.823-0.17-3.815,3.565c0.05,4.443-0.017,16.423-0.017,16.423l22.318,0.038V25.669
		l3.916-3.687L48.035,21.96z"/>
	<path fill="#FFFFFF" stroke="#010101" stroke-width="0.1506" stroke-miterlimit="10" d="M66.592,42.356"/>
	<path fill="#FFFFFF" stroke="#010101" stroke-width="0.1506" stroke-miterlimit="10" d="M66.592,42.356"/>
	<path fill="#DCDBDC" d="M66.521,42.535V25.856c0,0,0.041-3.875,3.852-3.875c3.754,0,3.803,3.832,3.803,3.832l0.015,13.132
		l3.364,3.59H66.521z"/>
	<path fill="#FFFFFF" d="M74.123,38.973c0,0,0.049,3.614,3.902,3.614c3.654,0,3.738-3.663,3.738-3.663L74.123,38.973z"/>
	<path fill="none" d="M21.412,67.649"/>
	<path fill="#DCDBDC" d="M25.311,71.254c-3.654-0.004-3.852-3.604-3.852-3.604h22.427c0,3.603,3.879,3.625,3.879,3.625
		S28.532,71.272,25.311,71.254z"/>
	<path fill="none" stroke="#030303" stroke-width="0.1869" stroke-miterlimit="10" d="M55.033,34.191"/>
	<path fill="#5A5C5C" d="M63.229,36.673c0,4.052-3.363,7.339-7.51,7.339c-4.135,0-7.498-3.287-7.498-7.339
		c0-4.065,3.363-7.355,7.498-7.355C59.865,29.318,63.229,32.608,63.229,36.673z"/>
	<path fill="#808080" d="M48.416,34.95c-0.918,4.068,1.594,6.477,1.594,6.477l5.736-4.723C55.746,36.703,48.437,34.86,48.416,34.95z
		"/>
	<path fill="#DAD9D9" d="M57.312,29.504c0,0,2.357,0.295,4.188,2.488c0.012,0.017-5.754,4.71-5.754,4.71L57.312,29.504z"/>
	<path fill="#9B9B9B" d="M48.416,34.95c0.937-4.043,5.16-6.323,8.896-5.444c0.008,0.002-1.566,7.198-1.566,7.198
		S48.406,35.014,48.416,34.95z"/>
	<path fill="#FFFFFF" d="M32.895,41.928c-3.891-0.036-3.924,3.771-3.924,3.771v21.949h14.916c0,0-0.514,3.645,3.879,3.625
		c3.562-0.023,3.668-3.625,3.668-3.625l-0.03-21.932l3.854-3.791C55.258,41.928,38.395,41.949,32.895,41.928z"/>
	<path fill="#DCDBDC" d="M62.857,56.814l-3.768-3.643l-0.029-7.426c0,0,0.4-3.818-3.803-3.806c-3.92,0.011-3.855,3.777-3.855,3.777
		l-0.01,11.046L62.857,56.814z"/>
	<rect x="32.297" y="45.917" fill="#24401F" width="10.33" height="0.391"/>
	<rect x="32.272" y="48.164" fill="#24401F" width="8.628" height="0.39"/>
	<path fill="#EBEBEB" d="M55.225,41.939c0.02,0,3.836-0.11,3.836,3.761c-0.057,1.966,0,7.405,0,7.405s0.125,3.664,3.674,3.643
		c3.498-0.031,3.836-3.643,3.836-3.643l-0.049-11.156l-5.625-0.006L55.225,41.939z"/>
	<path fill="#575757" d="M58.422,43.389c0.113,0.111,2.56-1.458,2.56-1.458l-5.722-0.029C55.26,41.902,56.871,41.905,58.422,43.389z
		"/>
	<rect x="59.02" y="49.399" fill="#808080" width="5.482" height="1.127"/>
	<rect x="46.782" y="25.098" fill="#3D3D3D" width="16.234" height="0.984"/>
	<rect x="46.78" y="26.569" fill="#9B9B9B" width="5.583" height="1.126"/>
	<g id="Layer_2">
		<rect x="30.303" y="49.866" fill="#DAD9D9" width="19.721" height="13.523"/>
		<rect x="47.207" y="51.697" fill="#808080" width="1.543" height="11.158"/>
		<rect x="44.538" y="53.19" fill="#808080" width="1.517" height="9.664"/>
		<rect x="41.777" y="54.679" fill="#808080" width="1.543" height="8.176"/>
		<rect x="39.035" y="56.168" fill="#808080" width="1.516" height="6.687"/>
		<rect x="36.286" y="57.66" fill="#808080" width="1.515" height="5.194"/>
		<rect x="33.492" y="59.125" fill="#808080" width="1.512" height="3.729"/>
		<rect x="48.791" y="52.447" fill="#3D3D3D" width="0.746" height="10.415"/>
		<rect x="46.095" y="53.932" fill="#3D3D3D" width="0.78" height="8.923"/>
		<rect x="43.352" y="55.422" fill="#3D3D3D" width="0.764" height="7.433"/>
		<rect x="40.617" y="56.914" fill="#3D3D3D" width="0.758" height="5.94"/>
		<rect x="37.874" y="58.414" fill="#3D3D3D" width="0.756" height="4.448"/>
		<rect x="35.041" y="59.873" fill="#3D3D3D" width="0.769" height="2.981"/>
		<rect x="30.299" y="45.55" fill="#808080" width="1.14" height="1.125"/>
		<rect x="30.299" y="47.789" fill="#3D3D3D" width="1.14" height="1.125"/>
	</g>
</g>
</svg>
