<?xml version="1.0" encoding="utf-8"?>
<!-- Generator: Adobe Illustrator 16.0.0, SVG Export Plug-In . SVG Version: 6.00 Build 0)  -->
<!DOCTYPE svg PUBLIC "-//W3C//DTD SVG 1.1//EN" "http://www.w3.org/Graphics/SVG/1.1/DTD/svg11.dtd">
<svg version="1.1" id="Layer_1" xmlns="http://www.w3.org/2000/svg" xmlns:xlink="http://www.w3.org/1999/xlink" x="0px" y="0px"
	 width="100px" height="100px" viewBox="0 0 100 100" enable-background="new 0 0 100 100" xml:space="preserve">
<g>
	<g>
		<path fill="#2473A6" d="M51.183,13.952C50.222,14.683,37.099,24.45,20.27,27.816c-2.221,38.864,30.887,58.986,30.913,58.973
			c0.024,0.014,33.134-20.108,30.912-58.974C65.257,24.45,51.183,13.952,51.183,13.952z"/>
		<path fill="#2473A6" d="M93.049,21.559c-0.075-1.177-0.93-2.165-2.09-2.399C70.428,15.052,52.906,2.14,52.731,2.011
			c-0.931-0.691-2.196-0.689-3.123,0.011C48.919,2.552,32.45,14.945,11.406,19.16c-1.162,0.235-2.016,1.223-2.08,2.4
			C7.64,51.088,21.484,72.329,33.404,84.945c4.471,4.731,8.662,8.247,11.399,10.342c1.564,1.2,2.835,2.098,3.615,2.621
			c1.474,0.994,1.887,1.28,2.704,1.287c0.024,0.002,0.063,0.002,0.103,0.002c0.794,0,1.273-0.322,2.545-1.163
			c0.686-0.474,1.805-1.229,3.198-2.289c2.41-1.82,6.151-4.863,10.244-8.981c7.671-7.737,13.787-16.348,18.155-25.588
			C91.252,48.746,93.833,35.417,93.049,21.559z M70.305,75.486c-7.883,9.898-16.035,15.912-19.122,18.028
			c-3.093-2.116-11.238-8.129-19.126-18.029C19.726,60.01,13.797,42.642,14.419,23.832C32.18,19.815,46.558,10.53,51.198,7.282
			c4.704,3.241,19.316,12.587,36.754,16.547C88.568,42.644,82.64,60.014,70.305,75.486z"/>
	</g>
</g>
</svg>
