<?xml version="1.0" encoding="utf-8"?>
<!-- Generator: Adobe Illustrator 16.0.0, SVG Export Plug-In . SVG Version: 6.00 Build 0)  -->
<!DOCTYPE svg PUBLIC "-//W3C//DTD SVG 1.1//EN" "http://www.w3.org/Graphics/SVG/1.1/DTD/svg11.dtd">
<svg version="1.1" id="Layer_1" xmlns="http://www.w3.org/2000/svg" xmlns:xlink="http://www.w3.org/1999/xlink" x="0px" y="0px"
	 width="100px" height="100px" viewBox="0 0 100 100" enable-background="new 0 0 100 100" xml:space="preserve">
<g>
	<path fill="#2473A6" d="M96.464,36.025c0.97,0,1.759-0.8,1.759-1.801c0-0.991-0.789-1.8-1.759-1.8h-5.278v-7.199h5.278
		c0.97,0,1.759-0.803,1.759-1.806c0-0.989-0.789-1.803-1.759-1.803h-5.278v-3.633c0-4.968-3.957-9.007-8.795-9.007h-3.547V3.558
		c0-0.987-0.799-1.798-1.759-1.798c-0.984,0-1.759,0.811-1.759,1.798v5.418h-7.023V3.558c0-0.987-0.795-1.798-1.762-1.798
		c-0.975,0-1.764,0.811-1.764,1.798v5.418h-7.029V3.558c0-0.987-0.774-1.798-1.76-1.798c-0.958,0-1.759,0.811-1.759,1.798v5.418
		h-7.016V3.558c0-0.987-0.787-1.798-1.759-1.798c-0.973,0-1.759,0.811-1.759,1.798v5.418h-7.029V3.558
		c0-0.987-0.79-1.798-1.759-1.798c-0.971,0-1.758,0.811-1.758,1.798v5.418h-7.03V3.558c0-0.987-0.787-1.798-1.759-1.798
		c-0.972,0-1.759,0.811-1.759,1.798v5.418h-3.54c-4.858,0-8.806,4.04-8.806,9.007v3.633H4.98c-0.969,0-1.757,0.814-1.757,1.803
		c0,1.002,0.788,1.806,1.757,1.806h5.274v7.199H4.98c-0.969,0-1.757,0.809-1.757,1.8c0,1.001,0.788,1.801,1.757,1.801h5.274v7.199
		H4.98c-0.969,0-1.757,0.815-1.757,1.802c0,1.003,0.788,1.806,1.757,1.806h5.274v7.192H4.98c-0.969,0-1.757,0.81-1.757,1.818
		c0,0.985,0.788,1.787,1.757,1.787h5.274v7.211H4.98c-0.969,0-1.757,0.801-1.757,1.79c0,1.006,0.788,1.812,1.757,1.812h5.274v7.187
		H4.98c-0.969,0-1.757,0.82-1.757,1.818c0,0.988,0.788,1.788,1.757,1.788h5.274v3.636c0,4.985,3.948,9.019,8.806,9.019h3.54v5.418
		c0,0.985,0.788,1.784,1.759,1.784c0.973,0,1.759-0.799,1.759-1.784v-5.418h7.03v5.418c0,0.985,0.787,1.784,1.758,1.784
		c0.97,0,1.759-0.799,1.759-1.784v-5.418h7.029v5.418c0,0.985,0.787,1.784,1.759,1.784c0.972,0,1.759-0.799,1.759-1.784v-5.418
		h7.016v5.418c0,0.985,0.801,1.784,1.759,1.784c0.985,0,1.76-0.799,1.76-1.784v-5.418h7.029v5.418c0,0.985,0.789,1.784,1.764,1.784
		c0.967,0,1.762-0.799,1.762-1.784v-5.418h7.023v5.418c0,0.985,0.774,1.784,1.759,1.784c0.96,0,1.759-0.799,1.759-1.784v-5.418
		h3.547c4.838,0,8.795-4.033,8.795-9.019v-3.636h5.278c0.97,0,1.759-0.8,1.759-1.788c0-0.998-0.789-1.818-1.759-1.818h-5.278v-7.187
		h5.278c0.97,0,1.759-0.807,1.759-1.812c0-0.989-0.789-1.79-1.759-1.79h-5.278V57.63h5.278c0.97,0,1.759-0.802,1.759-1.787
		c0-1.009-0.789-1.818-1.759-1.818h-5.278v-7.192h5.278c0.97,0,1.759-0.803,1.759-1.806c0-0.987-0.789-1.802-1.759-1.802h-5.278
		v-7.199H96.464z M87.667,82.872c0,2.988-2.379,5.417-5.276,5.417h-63.33c-2.919,0-5.285-2.429-5.285-5.417V17.984
		c0-2.976,2.366-5.402,5.285-5.402h63.33c2.897,0,5.276,2.426,5.276,5.402V82.872L87.667,82.872z"/>
	<path fill="#2473A6" d="M78.839,18.02H22.601c-1.938,0-3.519,1.616-3.519,3.602v57.615c0,1.995,1.581,3.615,3.519,3.615h56.238
		c1.938,0,3.518-1.62,3.518-3.615V21.622C82.356,19.636,80.776,18.02,78.839,18.02z M22.601,79.236V21.622h56.238l0.001,57.615
		H22.601L22.601,79.236z"/>
</g>
</svg>
