<?xml version="1.0" encoding="utf-8"?>
<!-- Generator: Adobe Illustrator 16.0.0, SVG Export Plug-In . SVG Version: 6.00 Build 0)  -->
<!DOCTYPE svg PUBLIC "-//W3C//DTD SVG 1.1//EN" "http://www.w3.org/Graphics/SVG/1.1/DTD/svg11.dtd">
<svg version="1.1" id="Layer_1" xmlns="http://www.w3.org/2000/svg" xmlns:xlink="http://www.w3.org/1999/xlink" x="0px" y="0px"
	 width="100px" height="100px" viewBox="0 0 100 100" enable-background="new 0 0 100 100" xml:space="preserve">
<g>
	<g>
		<path fill="#2473A6" d="M65.85,68.8c0.315,0.368,0.721,0.537,1.122,0.537c0.396,0,0.812-0.171,1.12-0.537
			c0.603-0.721,0.603-1.889,0-2.6L51.568,46.962c0,0,0,0-0.002-0.002l-1.11-1.293l-1.12,1.293c0,0,0,0-0.002,0.002L32.815,66.2
			c-0.615,0.711-0.615,1.879,0,2.6c0.616,0.721,1.621,0.721,2.24,0l13.818-16.091v32.448c0,1.013,0.708,1.843,1.583,1.843
			c0.874,0,1.577-0.83,1.577-1.843V52.709L65.85,68.8z"/>
		<path fill="#2473A6" d="M81.504,35.115C77.6,22.359,67.328,13.866,55.618,13.866c-11.032,0-20.951,7.727-25.25,19.442
			c-2.015-1.085-4.216-1.659-6.452-1.659c-8.506,0-15.432,8.052-15.45,17.951c-4.428,3.951-7.044,10.071-7.044,16.585
			C1.423,77.66,9.463,87,19.61,87.003c0.118,0,0.226,0.003,0.329,0.003c0.11,0,0.204,0,0.277-0.006h16.671
			c0.874,0,1.581-0.832,1.581-1.843c0-1.01-0.708-1.843-1.581-1.843H20.133c-0.155,0.01-0.311,0.001-0.469,0l-0.317-0.003
			c-8.14,0-14.761-7.687-14.761-17.13c0-5.642,2.394-10.94,6.393-14.161l0.73-0.837l-0.074-1.538
			c0-7.892,5.509-14.311,12.282-14.311c2.275,0,4.502,0.74,6.449,2.144l1.676,1.213l0.651-2.17
			c3.409-11.347,12.617-18.968,22.926-18.968c10.641,0,19.959,7.932,23.172,19.739l0.293,1.084l0.959,0.18
			c9.429,1.773,16.271,11.128,16.271,22.25c0,12.409-8.688,22.51-19.384,22.51H64.009c-0.868,0-1.573,0.832-1.573,1.847
			c0,1.01,0.705,1.841,1.573,1.841h12.922c12.443,0,22.551-11.757,22.551-26.197C99.479,48.24,91.968,37.609,81.504,35.115z"/>
	</g>
</g>
</svg>
