<?xml version="1.0" encoding="utf-8"?>
<!-- Generator: Adobe Illustrator 16.0.0, SVG Export Plug-In . SVG Version: 6.00 Build 0)  -->
<!DOCTYPE svg PUBLIC "-//W3C//DTD SVG 1.1//EN" "http://www.w3.org/Graphics/SVG/1.1/DTD/svg11.dtd">
<svg version="1.1" id="Layer_1" xmlns="http://www.w3.org/2000/svg" xmlns:xlink="http://www.w3.org/1999/xlink" x="0px" y="0px"
	 width="100px" height="100px" viewBox="0 0 100 100" enable-background="new 0 0 100 100" xml:space="preserve">
<g>
	<path fill="#2473A6" d="M5.746,53.098h13.244c0.546,7.007,3.286,13.389,7.523,18.437l-9.375,9.54c-0.988,1.002-0.988,2.626,0,3.632
		c0.489,0.497,1.137,0.752,1.783,0.752c0.644,0,1.29-0.255,1.784-0.752l9.377-9.542c4.962,4.31,11.235,7.102,18.117,7.652v13.476
		c0,1.419,1.13,2.568,2.524,2.568c1.393,0,2.523-1.149,2.523-2.568V82.816c6.887-0.553,13.159-3.343,18.118-7.652l9.378,9.542
		c0.491,0.497,1.138,0.752,1.787,0.752c0.644,0,1.287-0.255,1.781-0.752c0.987-1.006,0.987-2.63,0-3.632l-9.376-9.54
		c4.232-5.048,6.979-11.43,7.518-18.437H95.7c1.393,0,2.521-1.146,2.521-2.564c0-1.418-1.129-2.569-2.521-2.569H82.451
		c-0.539-7.001-3.285-13.383-7.518-18.431l9.376-9.539c0.987-1.004,0.987-2.63,0-3.632c-0.985-1.003-2.584-1.003-3.568,0
		l-9.378,9.54c-4.959-4.311-11.231-7.099-18.118-7.653V4.775c0-1.417-1.13-2.566-2.523-2.566c-1.394,0-2.524,1.148-2.524,2.566
		V18.25c-6.881,0.554-13.155,3.342-18.117,7.653l-9.377-9.541c-0.985-1.002-2.584-1.002-3.567,0c-0.988,1.003-0.988,2.628,0,3.632
		l9.375,9.539c-4.237,5.047-6.978,11.43-7.523,18.431H5.746c-1.393,0-2.524,1.15-2.524,2.569
		C3.222,51.952,4.353,53.098,5.746,53.098z M24.058,53.098h20.571l-14.54,14.796C26.753,63.795,24.574,58.69,24.058,53.098z
		 M33.661,71.524l14.538-14.793v20.932C42.705,77.136,37.688,74.918,33.661,71.524z M53.245,77.663V56.732l14.539,14.792
		C63.756,74.918,58.738,77.136,53.245,77.663z M71.355,67.894l-14.54-14.796h20.571C76.87,58.69,74.69,63.795,71.355,67.894z
		 M77.387,47.964H56.815l14.54-14.791C74.69,37.271,76.87,42.377,77.387,47.964z M67.784,29.544l-14.539,14.79V23.407
		C58.738,23.931,63.756,26.15,67.784,29.544z M48.198,23.407v20.928l-14.538-14.79C37.688,26.15,42.705,23.931,48.198,23.407z
		 M30.089,33.174l14.54,14.791H24.058C24.574,42.377,26.753,37.271,30.089,33.174z"/>
</g>
</svg>
