<?xml version="1.0" encoding="utf-8"?>
<!-- Generator: Adobe Illustrator 16.0.0, SVG Export Plug-In . SVG Version: 6.00 Build 0)  -->
<!DOCTYPE svg PUBLIC "-//W3C//DTD SVG 1.1//EN" "http://www.w3.org/Graphics/SVG/1.1/DTD/svg11.dtd">
<svg version="1.1" id="Layer_1" xmlns="http://www.w3.org/2000/svg" xmlns:xlink="http://www.w3.org/1999/xlink" x="0px" y="0px"
	 width="100px" height="100px" viewBox="0 0 100 100" enable-background="new 0 0 100 100" xml:space="preserve">
<g>
	<path fill="#2473A6" d="M97.845,20.599l0.069-0.177L50.475,1.76L3.112,20.615l-0.155-0.061v0.122l-0.006,0.003l0.006,0.02V80.56
		l47.495,18.746L97.95,80.56V20.555L97.845,20.599z M50.429,5.427l16.088,5.805L22.658,28.381L7.799,22.477L50.429,5.427z
		 M48.76,95.081l-17.79-7.234l-8.926-3.377L6.352,78.233V25.578l15.535,6.169v13.167l1.383-0.391l0.937,1.296l1.303-0.307
		l1.259,1.342l1.104-0.381l1.778,1.774V34.83l1.381,0.551L48.76,42.42V95.081L48.76,95.081z M50.456,39.425l-17.345-6.891
		l42.773-17.459l17.642,7.239L50.456,39.425z M94.559,78.233L52.151,95.081V42.42l42.403-16.844v52.656L94.559,78.233L94.559,78.233
		z"/>
</g>
</svg>
