<?xml version="1.0" encoding="utf-8"?>
<!-- Generator: Adobe Illustrator 16.0.0, SVG Export Plug-In . SVG Version: 6.00 Build 0)  -->
<!DOCTYPE svg PUBLIC "-//W3C//DTD SVG 1.1//EN" "http://www.w3.org/Graphics/SVG/1.1/DTD/svg11.dtd">
<svg version="1.1" id="Layer_1" xmlns="http://www.w3.org/2000/svg" xmlns:xlink="http://www.w3.org/1999/xlink" x="0px" y="0px"
	 width="100px" height="100px" viewBox="0 0 100 100" enable-background="new 0 0 100 100" xml:space="preserve">
<g>
	<g id="data">
		<path fill="#2473A6" d="M50.181,1.095c-20.718,0-43,6.242-43,19.967v58.375c0,13.715,22.282,19.974,43,19.974
			c20.705,0,43-6.259,43-19.974V21.062C93.181,7.337,70.883,1.095,50.181,1.095z M87.036,79.437
			c0,7.637-16.495,13.826-36.855,13.826c-20.355,0-36.855-6.189-36.855-13.826V67.955c6.348,6.539,21.651,9.947,36.855,9.947
			c15.205,0,30.516-3.408,36.855-9.947V79.437z M87.036,61.001h-0.016c0,0.037,0.016,0.062,0.016,0.098
			c0,7.588-16.495,13.722-36.855,13.722c-20.351,0-36.855-6.134-36.855-13.722c0-0.036,0.007-0.061,0.007-0.098h-0.007V49.519
			c6.348,6.549,21.651,9.942,36.855,9.942c15.205,0,30.516-3.393,36.855-9.942V61.001z M87.036,42.569h-0.016
			c0,0.027,0.016,0.062,0.016,0.098c0,7.581-16.495,13.729-36.855,13.729c-20.351,0-36.855-6.147-36.855-13.729
			c0-0.036,0.007-0.071,0.007-0.098h-0.007V32.008c8.049,6.135,22.808,9.027,36.855,9.027c14.057,0,28.807-2.892,36.855-9.027
			V42.569z M50.181,34.888c-20.355,0-36.855-6.199-36.855-13.826c0-7.637,16.5-13.829,36.855-13.829
			c20.36,0,36.855,6.192,36.855,13.829C87.036,28.689,70.541,34.888,50.181,34.888z"/>
		<path fill="#2473A6" d="M77.825,77.902c1.7,0,3.064,1.367,3.064,3.065c0,1.7-1.364,3.082-3.064,3.082
			c-1.699,0-3.079-1.382-3.079-3.082C74.746,79.27,76.126,77.902,77.825,77.902z"/>
		<path fill="#2473A6" d="M77.825,59.461c1.7,0,3.064,1.382,3.064,3.082c0,1.693-1.364,3.065-3.064,3.065
			c-1.699,0-3.079-1.372-3.079-3.065C74.746,60.843,76.126,59.461,77.825,59.461z"/>
		<path fill="#2473A6" d="M77.825,41.035c1.7,0,3.064,1.375,3.064,3.065c0,1.701-1.364,3.073-3.064,3.073
			c-1.699,0-3.079-1.372-3.079-3.073C74.746,42.41,76.126,41.035,77.825,41.035z"/>
	</g>
</g>
</svg>
