<?xml version="1.0" encoding="utf-8"?>
<!-- Generator: Adobe Illustrator 16.0.0, SVG Export Plug-In . SVG Version: 6.00 Build 0)  -->
<!DOCTYPE svg PUBLIC "-//W3C//DTD SVG 1.1//EN" "http://www.w3.org/Graphics/SVG/1.1/DTD/svg11.dtd">
<svg version="1.1" id="Layer_1" xmlns="http://www.w3.org/2000/svg" xmlns:xlink="http://www.w3.org/1999/xlink" x="0px" y="0px"
	 width="100px" height="100px" viewBox="0 0 100 100" enable-background="new 0 0 100 100" xml:space="preserve">
<g>
	<path fill="#238ABA" d="M98,50c0,26.513-21.489,48-48,48C23.487,98,2,76.513,2,50C2,23.487,23.487,2,50,2C76.513,2,98,23.487,98,50
		z"/>
	<path fill="#145269" d="M33.027,74.366l34.882,20.14c0,0,14.136-5.146,22.621-18.612c9.521-15.074,7.164-31.172,7.164-31.172
		L53.418,19.168l-8.744,19.248l-27.066,13.77l1.971,1.192l20.655,6.459L33.027,74.366z"/>
	<path fill="#E29F49" d="M56.778,24.974c0,3.703-2.994,6.702-6.695,6.702c-3.702,0-6.702-3-6.702-6.702
		c0-3.701,3.001-6.701,6.702-6.701S56.778,21.272,56.778,24.974z"/>
	<polygon fill="#F4F4F4" points="59.504,33.021 72.684,31.26 69.162,35.363 	"/>
	<polygon fill="#C6C0BE" points="71.504,35.508 72.684,31.26 69.162,35.363 	"/>
	<path fill="#FAFCF8" d="M80.722,50.171c0,11.602-13.77,21-30.752,21c-16.977,0-30.736-9.398-30.736-21
		c0-11.604,13.759-21.002,30.736-21.002C66.952,29.169,80.722,38.568,80.722,50.171z"/>
	<polygon fill="#FAFCF8" points="41.604,74.366 33.027,74.366 30.592,66.479 41.604,66.5 	"/>
	<polygon fill="#FAFCF8" points="66.721,74.313 58.15,74.313 58.15,66.446 69.47,66.372 	"/>
	<polygon fill="#FAFCF8" points="19.47,52.536 17.608,52.186 17.608,48.332 19.486,48.067 	"/>
	<polygon fill="#FAFCF8" points="82.631,54.484 79.495,54.495 80.383,47.545 82.631,47.556 	"/>
	<path fill="#B2B1B5" d="M75.026,44.141c0,0.647-0.531,1.171-1.18,1.171c-0.633,0-1.163-0.524-1.163-1.171
		c0-0.648,0.53-1.171,1.163-1.171C74.494,42.969,75.026,43.493,75.026,44.141z"/>
	<path fill="#FFFFFF" stroke="#010101" stroke-width="0.239" stroke-miterlimit="10" d="M84.529,29.217"/>
	<polygon fill="#F4F4F4" points="60.684,34.774 69.162,31.996 65.659,36.09 	"/>
	<polygon fill="#C6C0BE" points="68,36.235 69.162,31.996 65.659,36.09 	"/>
	<rect x="42.974" y="30.717" fill="#C6C0BE" width="14.052" height="2.043"/>
	<path fill="#FAD057" d="M50.043,18.833c3.704,0,6.705,3.001,6.705,6.704c0,3.702-3.001,6.703-6.705,6.703
		c-3.7,0-6.701-3.001-6.701-6.703C43.342,21.834,46.343,18.833,50.043,18.833z"/>
	<path fill="#E29F49" d="M55.784,25.497c0,3.142-2.558,5.695-5.697,5.695c-3.144,0-5.695-2.553-5.695-5.695
		c0-3.143,2.553-5.688,5.695-5.688C53.227,19.809,55.784,22.354,55.784,25.497z"/>
	<path fill="#EEB54C" d="M50.087,19.809c3.854,0,5.704,3.53,5.697,5.095c-0.037,3.141-2.558,5.688-5.697,5.688
		c-3.144,0-5.695-2.545-5.695-5.688C44.39,23.278,46.232,19.809,50.087,19.809"/>
	<path id="path4135" fill="#E29F49" d="M50.499,30.021h-0.468l-0.004-1.404c-0.328-0.005-0.651-0.044-0.979-0.119
		c-0.327-0.065-0.657-0.172-0.986-0.312v-0.842c0.312,0.199,0.632,0.348,0.96,0.449c0.328,0.099,0.659,0.147,1.009,0.159v-2.132
		c-0.69-0.108-1.192-0.3-1.502-0.569c-0.316-0.271-0.468-0.641-0.468-1.109c0-0.5,0.165-0.905,0.504-1.195
		c0.342-0.291,0.831-0.462,1.466-0.507v-1.095h0.466v1.083c0.29,0.011,0.57,0.044,0.843,0.092c0.266,0.047,0.532,0.111,0.797,0.196
		v0.814c-0.265-0.125-0.534-0.234-0.807-0.3c-0.268-0.077-0.545-0.119-0.832-0.128v2c0.707,0.105,1.225,0.299,1.562,0.583
		c0.333,0.28,0.498,0.662,0.498,1.149c0,0.526-0.177,0.944-0.532,1.243c-0.353,0.308-0.862,0.482-1.528,0.53V30.021 M50.031,25.016
		v-1.917c-0.365,0.042-0.638,0.143-0.825,0.312c-0.191,0.162-0.288,0.383-0.288,0.658c0,0.264,0.088,0.477,0.268,0.625
		C49.357,24.841,49.637,24.953,50.031,25.016 M50.499,25.914v2.02c0.394-0.051,0.689-0.16,0.894-0.334
		c0.198-0.165,0.301-0.395,0.301-0.676c0-0.271-0.099-0.494-0.29-0.65C51.213,26.105,50.909,25.991,50.499,25.914"/>
	<path id="flowRoot2169" fill="#FAD057" d="M50.203,29.751h-0.468l-0.004-1.403c-0.327-0.007-0.656-0.046-0.982-0.109
		c-0.329-0.079-0.656-0.179-0.985-0.319v-0.842c0.318,0.198,0.641,0.346,0.964,0.454c0.329,0.098,0.665,0.149,1.008,0.153v-2.138
		c-0.683-0.106-1.186-0.297-1.506-0.567c-0.304-0.265-0.466-0.633-0.466-1.1c0-0.508,0.174-0.914,0.509-1.204
		c0.34-0.291,0.829-0.462,1.463-0.506v-1.095h0.469v1.084c0.294,0.008,0.576,0.043,0.837,0.093c0.272,0.047,0.543,0.108,0.798,0.194
		v0.822c-0.255-0.132-0.523-0.233-0.802-0.308c-0.269-0.068-0.549-0.109-0.833-0.129v2c0.704,0.106,1.231,0.308,1.565,0.588
		c0.329,0.279,0.496,0.661,0.496,1.146c0,0.526-0.174,0.942-0.533,1.25c-0.352,0.296-0.858,0.475-1.528,0.523v1.411 M49.735,24.746
		v-1.918c-0.356,0.043-0.634,0.144-0.825,0.312c-0.187,0.169-0.283,0.383-0.283,0.659c0,0.269,0.089,0.474,0.257,0.623
		C49.064,24.578,49.35,24.683,49.735,24.746 M50.203,25.641v2.031c0.398-0.062,0.695-0.168,0.889-0.343
		c0.211-0.168,0.31-0.393,0.31-0.673c0-0.274-0.095-0.495-0.29-0.656C50.924,25.843,50.617,25.719,50.203,25.641"/>
	<path fill="none" stroke="#21231E" stroke-width="2.3902" stroke-miterlimit="10" d="M25.023,92.285"/>
</g>
</svg>
