<?xml version="1.0" encoding="utf-8"?>
<!-- Generator: Adobe Illustrator 16.0.0, SVG Export Plug-In . SVG Version: 6.00 Build 0)  -->
<!DOCTYPE svg PUBLIC "-//W3C//DTD SVG 1.1//EN" "http://www.w3.org/Graphics/SVG/1.1/DTD/svg11.dtd">
<svg version="1.1" id="Layer_1" xmlns="http://www.w3.org/2000/svg" xmlns:xlink="http://www.w3.org/1999/xlink" x="0px" y="0px"
	 width="100px" height="100px" viewBox="0 0 100 100" enable-background="new 0 0 100 100" xml:space="preserve">
<g>
	<path fill="#238ABA" d="M50,2c26.521,0,48,21.479,48,48c0,26.52-21.479,48-48,48S2,76.521,2,50C2,23.479,23.479,2,50,2z"/>
	<path fill="#145269" d="M70.306,24.464l-7.837,19.966l-9.795,22.255L33.928,76.34l32.526,18.688c0,0,16.773-5.309,25.688-22.067
		c9.285-17.47,4.732-33.129,4.732-33.129L70.306,24.464z"/>
	<polygon fill="#145269" points="29.989,40.051 38.145,24.636 43.026,27.458 50.472,31.724 55.338,26.469 58.402,28.168 
		66.277,40.87 73.949,45.267 57.021,55.801 45.739,49.4 45.256,48.729 	"/>
	<path fill="#EAEAEA" d="M79.614,66.365H52.807V54.868c0,0-0.361-11.281,13.321-11.281c13.78,0,13.486,11.281,13.486,11.281V66.365z
		"/>
	<path fill="#EAEAEA" d="M66.128,23.42c4.826,0,8.727,3.901,8.727,8.728c0,4.826-3.9,8.751-8.727,8.751
		c-4.827,0-8.727-3.925-8.727-8.751C57.401,27.321,61.301,23.42,66.128,23.42z"/>
	<path fill="#EAEAEA" d="M47.148,66.365H20.364V54.868c0,0-0.361-11.281,13.321-11.281c13.78,0,13.463,11.281,13.463,11.281
		L47.148,66.365L47.148,66.365z"/>
	<path fill="#EAEAEA" d="M33.685,23.42c4.826,0,8.727,3.901,8.727,8.728c0,4.826-3.901,8.751-8.727,8.751
		c-4.827,0-8.727-3.925-8.727-8.751C24.958,27.321,28.858,23.42,33.685,23.42z"/>
	<path fill="#FFFFFF" d="M66.026,76.34H33.928V62.559c0,0-0.418-13.495,15.971-13.495c16.5,0,16.127,13.495,16.127,13.495V76.34z"/>
	<path fill="#FFFFFF" d="M49.899,24.917c5.771,0,10.456,4.685,10.456,10.456S55.67,45.829,49.899,45.829
		c-5.794,0-10.456-4.685-10.456-10.456S44.104,24.917,49.899,24.917z"/>
	<polygon fill="#145269" points="20.364,66.365 33.929,66.366 33.963,74.28 	"/>
	<path fill="none" d="M39.839,38.707c0,0-0.725-3.566-0.099-5.921c0.657-2.425,2.113-4.348,2.113-4.348"/>
	<path fill="none" d="M57.918,28.449c0,0,1.552,1.685,2.207,4.92c0.612,3.043-0.133,5.138-0.133,5.138"/>
	<path fill="none" d="M33.825,66.873l0.094-5.333c0,0,0.324-4.929,4.038-8.624c2.768-2.728,8.21-3.719,8.21-3.719"/>
	<path fill="none" d="M53.793,49.244c0,0,4.647,0.338,8.962,4.653c3.369,3.368,3.369,8.387,3.369,8.387l0.013,4.122"/>
</g>
</svg>
