<?xml version="1.0" encoding="utf-8"?>
<!-- Generator: Adobe Illustrator 16.0.0, SVG Export Plug-In . SVG Version: 6.00 Build 0)  -->
<!DOCTYPE svg PUBLIC "-//W3C//DTD SVG 1.1//EN" "http://www.w3.org/Graphics/SVG/1.1/DTD/svg11.dtd">
<svg version="1.1" id="Layer_1" xmlns="http://www.w3.org/2000/svg" xmlns:xlink="http://www.w3.org/1999/xlink" x="0px" y="0px"
	 width="100px" height="100px" viewBox="0 0 100 100" enable-background="new 0 0 100 100" xml:space="preserve">
<g>
	<g>
		<ellipse fill="#238ABA" cx="50" cy="50" rx="48" ry="48.017"/>
	</g>
	<path fill="#145269" d="M40.808,72.229L74.204,91.48c0,0,11.968-6.294,18.918-20.316c8.047-16.236,3.664-31.794,3.664-31.794
		L75.922,27.359L65.628,62.844L50.22,60.022L40.808,72.229z"/>
	<polygon fill="#145269" points="32.956,57.932 38.762,68.53 14.707,54.668 	"/>
	<polygon fill="#FFFFFF" points="65.628,62.885 43.076,58.914 75.929,27.387 	"/>
	<polygon fill="#FAFCF8" points="32.903,57.876 14.685,54.66 75.878,27.412 	"/>
	<polygon fill="#C6C0BE" points="43.073,58.908 40.815,72.231 50.226,60.179 	"/>
	<polygon fill="#B1B0B5" points="32.903,57.876 40.815,72.231 43.073,58.908 75.902,27.412 	"/>
	<path fill="none" stroke="#090A0A" stroke-width="0.5099" stroke-miterlimit="10" d="M72.666,64.123"/>
	<path fill="none" stroke="#090A0A" stroke-width="0.5099" stroke-miterlimit="10" d="M40.696,58.488"/>
</g>
</svg>
